<svg width="39" height="39" viewBox="0 0 39 39" fill="none" xmlns="http://www.w3.org/2000/svg">
<g opacity="0.6">
<path d="M12.1875 17.3062C15.0145 17.3062 17.3062 15.0145 17.3062 12.1875C17.3062 9.36047 15.0145 7.06873 12.1875 7.06873C9.36049 7.06873 7.06875 9.36047 7.06875 12.1875C7.06875 15.0145 9.36049 17.3062 12.1875 17.3062Z" fill="#FFCE31"/>
<path d="M14.2594 6.21562L12.1875 1.21875L10.1156 6.21562C10.7859 6.09375 11.4563 6.03281 12.1875 6.03281C12.9188 6.03281 13.5891 6.09375 14.2594 6.21562Z" fill="#FFCE31"/>
<path d="M10.1156 18.1594L12.1875 23.1562L14.2594 18.1594C13.5891 18.2812 12.9188 18.3422 12.1875 18.3422C11.4563 18.3422 10.7859 18.2812 10.1156 18.1594Z" fill="#FFCE31"/>
<path d="M18.1594 14.2593L23.1563 12.1875L18.1594 10.1156C18.2813 10.7859 18.3422 11.4562 18.3422 12.1875C18.3422 12.9187 18.2813 13.589 18.1594 14.2593Z" fill="#FFCE31"/>
<path d="M6.21562 10.1156L1.21875 12.1875L6.21562 14.2593C6.09375 13.589 6.03281 12.9187 6.03281 12.1875C6.03281 11.4562 6.09375 10.7859 6.21562 10.1156Z" fill="#FFCE31"/>
<path d="M17.8547 9.4453L19.9266 4.44843L14.9297 6.5203C15.4781 6.88593 16.0266 7.31249 16.5141 7.86092C17.0625 8.34842 17.4891 8.89686 17.8547 9.4453Z" fill="#FFCE31"/>
<path d="M6.52032 14.9297L4.44844 19.9266L9.44532 17.8547C8.89688 17.4891 8.34844 17.0625 7.86094 16.5141C7.3125 16.0266 6.88594 15.5391 6.52032 14.9297Z" fill="#FFCE31"/>
<path d="M14.9297 17.8547L19.9266 19.9266L17.8547 14.9297C17.4891 15.4781 17.0625 16.0266 16.5141 16.5141C16.0266 17.0625 15.5391 17.4891 14.9297 17.8547Z" fill="#FFCE31"/>
<path d="M9.44532 6.5203L4.44844 4.44843L6.52032 9.4453C6.88594 8.89686 7.3125 8.34842 7.86094 7.86092C8.34844 7.31249 8.89688 6.88593 9.44532 6.5203Z" fill="#FFCE31"/>
<path d="M14.625 20.414C14.1375 20.414 13.5891 20.3531 13.1016 20.1703C11.1516 19.5 9.81094 17.6718 9.81094 15.6C9.81094 14.1984 10.4203 12.9187 11.4562 12.0047C11.7 11.7609 12.0047 11.5781 12.3094 11.3953L12.6141 10.2984C13.4062 7.55622 15.9656 5.60623 18.8906 5.60623C19.1953 5.60623 19.5 5.60623 19.8047 5.66716C20.0484 5.7281 20.3531 5.78904 20.5969 5.84998L20.7187 5.60623C21.8766 3.53435 24.1312 2.19373 26.5078 2.19373C30.1641 2.19373 33.15 5.11872 33.15 8.77497V9.44529C33.4547 9.56716 33.6984 9.68904 33.9422 9.81091C35.7094 10.8468 36.8062 12.7359 36.8062 14.7469C36.8062 17.4281 34.9781 19.6828 32.3578 20.2922C31.9312 20.414 31.5047 20.414 31.0781 20.414H14.625Z" fill="white"/>
<path d="M26.5688 3.10781C29.6766 3.10781 32.2359 5.60625 32.2359 8.71406V9.14062C30.9563 9.2625 29.7375 9.75 28.8234 10.5422C29.4938 10.1156 30.3469 9.93281 31.2 9.93281C31.5047 9.93281 31.8094 9.99375 32.1141 9.99375C32.6016 10.1156 33.0891 10.2984 33.5766 10.5422C34.9781 11.3344 35.9531 12.8578 35.9531 14.625C35.9531 16.8797 34.3688 18.7687 32.2969 19.1953C31.9313 19.2563 31.6266 19.3172 31.2609 19.3172H14.625C14.1984 19.3172 13.7719 19.2563 13.4063 19.1344C11.8828 18.6469 10.7859 17.1844 10.7859 15.4781C10.7859 14.3203 11.2734 13.2844 12.1266 12.6141C12.4922 12.3094 12.9188 12.0656 13.4063 11.8828C13.8328 11.7609 14.2594 11.6391 14.6859 11.6391C15.9047 11.6391 17.0625 12.2484 17.7328 13.1625H17.7938C17.0016 11.6391 15.4172 10.6031 13.65 10.4203C14.3203 8.10469 16.4531 6.39844 19.0125 6.39844C19.2563 6.39844 19.5609 6.39844 19.8047 6.45938C20.2922 6.52031 20.8406 6.70312 21.2672 6.88594C22.9734 7.61719 24.2531 9.2625 24.4969 11.1516V11.0906C24.4969 8.89688 23.4 7.00781 21.6938 5.91094C22.5469 4.32656 24.4359 3.10781 26.5688 3.10781ZM26.5688 1.21875C23.9484 1.21875 21.5719 2.55937 20.1703 4.69219H19.9875C19.5609 4.63125 19.2563 4.63125 18.8906 4.63125C15.5391 4.63125 12.6141 6.825 11.7 10.0547L11.4563 10.7859C11.2125 10.9078 10.9688 11.0906 10.7859 11.2734C9.50625 12.3703 8.775 13.9547 8.775 15.6C8.775 18.0984 10.3594 20.2922 12.7359 21.0844C13.3453 21.2672 13.9547 21.3891 14.5641 21.3891H31.0781C31.5656 21.3891 32.0531 21.3281 32.6016 21.2062C35.6484 20.5359 37.7812 17.8547 37.7812 14.7469C37.7812 12.3703 36.5016 10.1766 34.4297 9.01875C34.3078 8.95781 34.2469 8.89687 34.125 8.83594V8.775C34.125 4.63125 30.7125 1.21875 26.5688 1.21875Z" fill="#B6C1D1"/>
<path d="M17.55 28.0313C17.1844 29.0063 17.4891 29.9813 18.2203 30.225C18.9516 30.4688 19.8047 29.9203 20.1703 28.9453C20.5969 27.8484 20.5969 26.2641 20.3531 24.4969C18.9516 25.7156 17.9156 26.9344 17.55 28.0313Z" fill="#75D6FF"/>
<path d="M25.5328 29.0062C25.9594 27.9094 25.9594 26.325 25.7156 24.5578C24.375 25.7156 23.4 26.9344 22.9734 28.0922C22.6078 29.0672 22.9125 30.0422 23.6438 30.2859C24.375 30.5297 25.1672 29.9203 25.5328 29.0062Z" fill="#75D6FF"/>
<path d="M31.0781 24.5578C29.7375 25.7156 28.7625 26.9344 28.3359 28.0922C27.9703 29.0672 28.275 30.0422 29.0063 30.2859C29.7375 30.5297 30.5906 29.9812 30.9563 29.0062C31.3219 27.8484 31.3219 26.325 31.0781 24.5578Z" fill="#75D6FF"/>
<path d="M12.1266 28.0313C11.7609 29.0063 12.0656 29.9813 12.7969 30.225C13.5281 30.4688 14.3812 29.9203 14.7469 28.9453C15.1734 27.8484 15.1734 26.2641 14.9297 24.4969C13.5281 25.7156 12.5531 26.9344 12.1266 28.0313Z" fill="#75D6FF"/>
<path d="M13.2844 35.5266C12.9187 36.5016 13.2234 37.4766 13.9547 37.7203C14.6859 37.9641 15.5391 37.4156 15.9047 36.4406C16.3312 35.3437 16.3312 33.7594 16.0875 31.9922C14.6859 33.15 13.7109 34.3687 13.2844 35.5266Z" fill="#75D6FF"/>
<path d="M21.2672 36.4406C21.6938 35.3437 21.6938 33.7594 21.45 31.9922C20.1094 33.15 19.1344 34.3687 18.7078 35.5266C18.3422 36.5016 18.6469 37.4766 19.3781 37.7203C20.1094 37.9641 20.9016 37.4156 21.2672 36.4406Z" fill="#75D6FF"/>
<path d="M26.8125 31.9922C25.4719 33.15 24.4969 34.3687 24.0703 35.5266C23.7047 36.5016 24.0094 37.4766 24.7406 37.7203C25.4719 37.9641 26.325 37.4156 26.6906 36.4406C27.0563 35.3437 27.1172 33.7594 26.8125 31.9922Z" fill="#75D6FF"/>
<path d="M7.92187 35.5266C7.55625 36.5016 7.86094 37.4766 8.59219 37.7203C9.32344 37.9641 10.1766 37.4156 10.5422 36.4406C10.9687 35.3437 10.9687 33.7594 10.725 31.9922C9.32344 33.15 8.2875 34.3687 7.92187 35.5266Z" fill="#75D6FF"/>
</g>
</svg>
