<svg width="36" height="36" viewBox="0 0 36 36" fill="none" xmlns="http://www.w3.org/2000/svg">
<g opacity="0.6" clip-path="url(#clip0_20:26)">
<path d="M35.2761 17.3397L28.5582 15.385C28.278 14.2776 27.8403 13.2162 27.2582 12.2334C28.3759 10.1853 29.4953 8.13723 30.6147 6.08973C30.9207 5.52948 30.3104 4.91636 29.749 5.22461L23.6301 8.58498C22.6379 7.98695 21.5625 7.53922 20.4391 7.25636C19.7736 4.98948 19.1087 2.72261 18.4433 0.450109C18.2672 -0.152329 17.401 -0.154579 17.2238 0.450109C16.564 2.72261 15.9025 4.98948 15.2416 7.26198C14.139 7.54375 13.0827 7.98248 12.1051 8.56473C10.0429 7.43973 7.98024 6.30911 5.91811 5.18411C5.35899 4.87867 4.7453 5.48955 5.05355 6.05092L8.44543 12.226C7.85834 13.2135 7.41798 14.281 7.13818 15.3952L0.452863 17.3549C-0.149012 17.5315 -0.152386 18.3989 0.452863 18.5744L7.14043 20.5201C7.4282 21.6543 7.88097 22.7401 8.48424 23.7427C7.37161 25.7778 6.25899 27.8124 5.14749 29.848C4.84036 30.4083 5.45068 31.022 6.01205 30.7143C8.04436 29.5977 10.0772 28.4812 12.1101 27.3657C13.0976 27.9545 14.1656 28.3964 15.2804 28.6775C15.9323 30.9072 16.5865 33.1347 17.2396 35.3617C17.4167 35.9658 18.2836 35.9669 18.4591 35.3617C19.1065 33.137 19.7556 30.9117 20.4019 28.6865C21.5291 28.4044 22.6088 27.9585 23.6065 27.3629L29.6669 30.6749C29.7241 30.7226 29.7906 30.7577 29.8622 30.7782C29.9338 30.7986 30.0088 30.8039 30.0826 30.7936C30.2356 30.7846 30.3717 30.7143 30.4774 30.6108C30.5944 30.5028 30.6743 30.3571 30.6839 30.1917C30.6935 30.1174 30.6876 30.0418 30.6665 29.9699C30.6453 29.8979 30.6095 29.8312 30.5612 29.7738C29.4554 27.7584 28.3467 25.7412 27.2402 23.7247C27.8307 22.729 28.2737 21.653 28.5554 20.5302C30.7941 19.8732 33.0362 19.2162 35.2756 18.5604C35.8791 18.3837 35.8814 17.5158 35.2767 17.3397" fill="#FBB041"/>
<path d="M17.7486 27.9771C23.3097 27.9771 27.8179 23.4689 27.8179 17.9078C27.8179 12.3466 23.3097 7.83844 17.7486 7.83844C12.1874 7.83844 7.67924 12.3466 7.67924 17.9078C7.67924 23.4689 12.1874 27.9771 17.7486 27.9771Z" fill="#F9EC21"/>
</g>
<defs>
<clipPath id="clip0_20:26">
<rect width="36" height="36" fill="white"/>
</clipPath>
</defs>
</svg>
