<svg width="33" height="33" viewBox="0 0 33 33" fill="none" xmlns="http://www.w3.org/2000/svg">
<g opacity="0.6">
<path d="M7.57968 22.8938L10.0547 20.3672C9.17812 20.1609 8.35312 19.8516 7.63124 19.3359L7.57968 22.8938Z" fill="#FFCE31"/>
<path d="M15.6234 3.40314L13.1484 5.9297C14.025 6.13595 14.85 6.44532 15.5719 6.96095L15.6234 3.40314Z" fill="#FFCE31"/>
<path d="M1.85625 17.1703L5.41407 17.1188C4.95001 16.3969 4.58907 15.5719 4.38282 14.6953L1.85625 17.1703Z" fill="#FFCE31"/>
<path d="M21.3469 9.12659L17.7891 9.17815C18.2531 9.90002 18.6141 10.725 18.8203 11.6016L21.3469 9.12659Z" fill="#FFCE31"/>
<path d="M1.85625 9.12659L4.38282 11.6016C4.58907 10.725 4.89844 9.90002 5.41407 9.17815L1.85625 9.12659Z" fill="#FFCE31"/>
<path d="M21.3469 17.1703L18.8203 14.6953C18.6141 15.5719 18.3047 16.3969 17.7891 17.1188L21.3469 17.1703Z" fill="#FFCE31"/>
<path d="M7.57968 3.40314L7.63124 6.96095C8.35312 6.49689 9.17812 6.13595 10.0547 5.9297L7.57968 3.40314Z" fill="#FFCE31"/>
<path d="M15.6234 22.8938L15.5719 19.3359C14.85 19.8 14.025 20.1609 13.1484 20.3672L15.6234 22.8938Z" fill="#FFCE31"/>
<path d="M5.51719 17.3766L4.125 20.625L7.37344 19.2328C6.65156 18.7172 6.03281 18.0985 5.51719 17.3766Z" fill="#FFCE31"/>
<path d="M17.6859 8.92031L19.0781 5.67188L15.8297 7.06406C16.5516 7.57969 17.1703 8.19844 17.6859 8.92031Z" fill="#FFCE31"/>
<path d="M4.33125 11.8078L1.03125 13.1484L4.33125 14.4891C4.27969 14.0766 4.22812 13.6125 4.22812 13.1484C4.17656 12.6844 4.22812 12.2719 4.33125 11.8078Z" fill="#FFCE31"/>
<path d="M18.8719 14.4891L22.1719 13.1484L18.8719 11.8078C18.975 12.2203 18.975 12.6844 18.975 13.1484C18.975 13.6125 18.975 14.025 18.8719 14.4891Z" fill="#FFCE31"/>
<path d="M7.37344 7.06406L4.125 5.67188L5.51719 8.92031C6.03281 8.19844 6.65156 7.57969 7.37344 7.06406Z" fill="#FFCE31"/>
<path d="M15.8297 19.2328L19.0781 20.625L17.6859 17.3766C17.1703 18.0985 16.5516 18.7172 15.8297 19.2328Z" fill="#FFCE31"/>
<path d="M12.9422 5.87812L11.6016 2.57812L10.2609 5.87812C10.6734 5.82656 11.1375 5.775 11.6016 5.775C12.0656 5.72344 12.4781 5.775 12.9422 5.87812Z" fill="#FFCE31"/>
<path d="M10.2609 20.4188L11.6016 23.7188L12.9422 20.4188C12.5297 20.4703 12.0656 20.5219 11.6016 20.5219C11.1375 20.5219 10.725 20.5219 10.2609 20.4188Z" fill="#FFCE31"/>
<path d="M11.6016 19.8516C15.3036 19.8516 18.3047 16.8505 18.3047 13.1484C18.3047 9.4464 15.3036 6.44531 11.6016 6.44531C7.89953 6.44531 4.89844 9.4464 4.89844 13.1484C4.89844 16.8505 7.89953 19.8516 11.6016 19.8516Z" fill="#FFCE31"/>
<path d="M8.86875 29.4422C8.35312 29.4422 7.8375 29.339 7.37343 29.1844C5.41406 28.514 4.07343 26.6578 4.07343 24.5437C4.07343 23.1515 4.69218 21.7594 5.72343 20.8312C5.98125 20.5734 6.29062 20.3672 6.6 20.2125L6.90937 19.0781C7.68281 16.2422 10.2609 14.2828 13.1484 14.2828C13.4578 14.2828 13.7156 14.2828 14.0766 14.3344L14.85 14.4891L14.9531 14.2312C16.1391 12.0656 18.3562 10.7766 20.7281 10.7766C24.3891 10.7766 27.3281 13.8187 27.3281 17.5312V18.2015C27.5859 18.3047 27.8953 18.4594 28.1531 18.614C29.9062 19.6453 30.9891 21.6047 30.9891 23.6672C30.9891 26.4 29.1844 28.7203 26.5547 29.339C26.1422 29.4422 25.6781 29.4937 25.2656 29.4937H8.86875V29.4422Z" fill="white"/>
<path d="M20.7797 11.7562C23.8734 11.7562 26.4 14.3344 26.4 17.5312V17.9953C25.1109 18.0984 23.925 18.6141 22.9969 19.4391C23.6672 19.0266 24.4922 18.8203 25.3688 18.8203C25.6781 18.8203 25.9875 18.8719 26.2969 18.9234C26.8125 19.0266 27.2766 19.2328 27.7406 19.4906C29.1328 20.3156 30.1125 21.8625 30.1125 23.6672C30.1125 25.9359 28.5656 27.8953 26.4516 28.3594C26.0906 28.4625 25.7813 28.4625 25.3688 28.4625H8.86875C8.45625 28.4625 8.04375 28.4109 7.68281 28.2562C6.13594 27.7406 5.05313 26.2453 5.05313 24.5437C5.05313 23.3578 5.56875 22.3266 6.39375 21.6047C6.75469 21.2953 7.16719 21.0375 7.63125 20.8313C8.04375 20.6766 8.45625 20.625 8.92031 20.625C10.1578 20.625 11.2406 21.2438 11.9625 22.1719H12.0141C11.1891 20.625 9.69375 19.5422 7.88906 19.3875C8.55938 17.0156 10.6734 15.2625 13.2 15.2625C13.4578 15.2625 13.7156 15.3141 13.9734 15.3141C14.4891 15.3656 14.9531 15.5203 15.4172 15.7266C17.1187 16.5 18.3563 18.15 18.6656 20.1094V20.0578C18.6656 17.8406 17.5312 15.8813 15.8812 14.7469C16.8094 12.9422 18.6141 11.7562 20.7797 11.7562V11.7562ZM20.7797 9.79688C18.2016 9.79688 15.7781 11.1375 14.3859 13.4062H14.2313C13.8188 13.3547 13.5094 13.3031 13.1484 13.3031C9.84844 13.3031 6.85781 15.5719 5.98125 18.8203L5.72344 19.5938C5.46563 19.7484 5.25938 19.9031 5.05313 20.1094C3.81563 21.1922 3.09375 22.8422 3.09375 24.5437C3.09375 27.0703 4.69219 29.3391 7.06406 30.1125C7.63125 30.3188 8.25 30.4219 8.86875 30.4219H25.3172C25.8328 30.4219 26.2969 30.3703 26.8125 30.2672C29.8547 29.5453 31.9688 26.8125 31.9688 23.6672C31.9688 21.2438 30.6797 18.975 28.6172 17.7891L28.3078 17.6344V17.5828C28.3078 13.2516 24.9562 9.79688 20.7797 9.79688V9.79688Z" fill="#75D6FF"/>
</g>
</svg>
